<?xml version="1.0" standalone="no"?><!DOCTYPE svg PUBLIC "-//W3C//DTD SVG 1.1//EN" "http://www.w3.org/Graphics/SVG/1.1/DTD/svg11.dtd"><svg t="1648538048058" class="icon" viewBox="0 0 1024 1024" version="1.1" xmlns="http://www.w3.org/2000/svg" p-id="2409" xmlns:xlink="http://www.w3.org/1999/xlink" width="32" height="32"><defs><style type="text/css">@font-face { font-family: feedback-iconfont; src: url("//at.alicdn.com/t/font_1031158_u69w8yhxdu.woff2?t=1630033759944") format("woff2"), url("//at.alicdn.com/t/font_1031158_u69w8yhxdu.woff?t=1630033759944") format("woff"), url("//at.alicdn.com/t/font_1031158_u69w8yhxdu.ttf?t=1630033759944") format("truetype"); }
</style></defs><path d="M291.645716 267.256318s127.914638-41.27379 234.510171-41.27379a595.741109 595.741109 0 0 1 213.191063 48.266457l75.384361-106.595532s-22.683529-75.38436-85.276426-103.696134-143.605501-8.527643-143.6055-8.527642-112.223776-65.321742-206.027845-28.482327-153.497566 143.605501-153.497566 143.605501z" fill="#6C9DFF" p-id="2410"></path><path d="M287.381895 275.78396s123.650817-49.801433 238.773992-49.801432a539.458668 539.458668 0 0 1 213.191063 48.266457l4.263822 65.321741a65.321742 65.321742 0 0 1 68.22114 49.801433c12.791464 54.065254-35.474993 86.640848-68.22114 92.439645 0 0-37.009969 216.090462-227.346951 216.090463S280.389228 483.176227 280.389228 483.176227s-81.012604-18.419708-78.113206-81.012604 78.113206-65.321742 78.113206-65.321742z" fill="#FFECE3" p-id="2411"></path><path d="M469.361787 574.592555c8.015984 10.74483 18.078602 1.023317 40.591579 1.023317s38.374391 10.74483 44.8554-1.023317 6.481008-55.429677-44.684847-58.670181-47.072587 50.142538-40.762132 58.670181z" fill="#EC7094" p-id="2412"></path><path d="M443.77886 696.026185h133.201776l29.846749 92.780751 82.035922 12.791464v46.902034s-60.716815 29.846749-175.83999 35.133887a284.652708 284.652708 0 0 1-195.112462-72.484961l105.572215-19.10192z" fill="#FFECE3" p-id="2413"></path><path d="M685.45225 525.81444m-46.902035 0a46.902034 46.902034 0 1 0 93.804069 0 46.902034 46.902034 0 1 0-93.804069 0Z" fill="#EC7094" p-id="2414"></path><path d="M338.54775 525.81444m-46.902034 0a46.902034 46.902034 0 1 0 93.804069 0 46.902034 46.902034 0 1 0-93.804069 0Z" fill="#EC7094" p-id="2415"></path><path d="M231.952219 838.608369c-42.638213 49.801433-51.165855 167.653453-51.165856 167.653452h656.628477s9.892065-103.696133-46.902034-159.12581a185.561502 185.561502 0 0 0-105.060556-43.320424 254.464854 254.464854 0 0 1-162.877973 55.429677 339.400174 339.400174 0 0 1-190.848641-52.189173 97.726784 97.726784 0 0 0-99.773417 31.552278z" fill="#FFF385" p-id="2416"></path><path d="M458.78751 354.74993a17.055285 17.055285 0 1 0 10.233172-32.575594l-60.37571-18.760814a17.055285 17.055285 0 0 0-10.233171 32.575595zM615.355028 303.242969l-60.37571 18.760814a17.055285 17.055285 0 1 0 10.233172 32.575594l60.375709-18.760813a17.055285 17.055285 0 0 0-10.233171-32.575595zM512 506.200862a52.359725 52.359725 0 0 0-55.429677 48.43701 30.870066 30.870066 0 0 0 8.527643 24.730163 25.071269 25.071269 0 0 0 17.055285 5.457691 106.766085 106.766085 0 0 0 14.496992-1.364423 112.223776 112.223776 0 0 1 30.017302 0 38.88605 38.88605 0 0 0 32.234489-3.581609 30.699513 30.699513 0 0 0 8.527643-24.389058A52.359725 52.359725 0 0 0 512 506.200862z m35.816099 60.034604c-2.728846 2.38774-11.085935 1.19387-18.590261 0a137.806704 137.806704 0 0 0-34.11057 0c-7.333773 1.023317-15.520309 2.217187-18.249155 0a17.055285 17.055285 0 0 1-2.728846-11.768147A35.474993 35.474993 0 0 1 512 523.256147a35.474993 35.474993 0 0 1 38.374391 31.381725 17.055285 17.055285 0 0 1-2.558292 11.768146z" fill="#4C4497" p-id="2417"></path><path d="M429.622973 423.141623m-33.940017 0a33.940017 33.940017 0 1 0 67.880034 0 33.940017 33.940017 0 1 0-67.880034 0Z" fill="#4C4497" p-id="2418"></path><path d="M594.377027 423.141623m-33.940017 0a33.940017 33.940017 0 1 0 67.880034 0 33.940017 33.940017 0 1 0-67.880034 0Z" fill="#4C4497" p-id="2419"></path><path d="M850.035751 925.249217a156.226412 156.226412 0 0 0-139.34168-136.442281l-77.601547-8.015984a27.288456 27.288456 0 0 1-24.047952-21.660212L597.276426 700.801665a243.549471 243.549471 0 0 0 157.249728-204.663421 87.664165 87.664165 0 0 0 1.19387-174.64612v-42.126554L827.86388 187.608136a17.055285 17.055285 0 0 0 3.411057-13.644228 180.786022 180.786022 0 0 0-100.285076-124.674134 192.895275 192.895275 0 0 0-144.969924-8.527643 234.851276 234.851276 0 0 0-231.610771-17.055285 284.993814 284.993814 0 0 0-146.504899 143.264395 17.055285 17.055285 0 0 0 1.534975 15.349757l59.522945 93.804068v47.754798a87.664165 87.664165 0 0 0 1.19387 174.64612 243.549471 243.549471 0 0 0 157.249729 204.663421l-12.279805 59.011286a27.288456 27.288456 0 0 1-23.8774 21.660212l-77.601547 8.015984a156.226412 156.226412 0 0 0-139.341679 136.442281l-10.233171 78.795418a17.055285 17.055285 0 0 0 14.496992 16.20252h2.217187a17.055285 17.055285 0 0 0 17.055285-14.838098l10.233171-78.795417a122.286394 122.286394 0 0 1 108.983272-106.254426l19.443025-2.046634A346.392841 346.392841 0 0 0 512 866.408483c11.9387 0 23.877399 0 35.474993-1.534975a8.527643 8.527643 0 1 0-1.534976-17.055285c-11.085935 1.023317-22.512976 1.534976-34.11057 1.534975a341.958466 341.958466 0 0 1-145.311029-30.699513l28.14122-2.899398A61.228474 61.228474 0 0 0 448.383787 767.48783l11.597593-56.282441a238.773991 238.773991 0 0 0 104.03724 0l11.597593 56.282441a61.228474 61.228474 0 0 0 53.894701 48.607562l27.800115 2.899399a284.482156 284.482156 0 0 1-27.629562 11.597594 8.527643 8.527643 0 0 0 5.628244 16.031968 287.552107 287.552107 0 0 0 52.359726-24.559611l19.443025 2.046634a122.286394 122.286394 0 0 1 108.983271 106.254427l10.233172 78.795417a17.055285 17.055285 0 0 0 17.055285 14.838098h2.217187a17.055285 17.055285 0 0 0 14.667545-19.10192zM800.404871 409.326843a54.065254 54.065254 0 0 1-45.196505 53.212489v-61.057921l17.055285 9.721513a8.527643 8.527643 0 1 0 8.186537-15.008651l-25.924034-14.155887v-25.75348A54.065254 54.065254 0 0 1 800.404871 409.326843zM368.223947 53.383042a199.717389 199.717389 0 0 1 204.663421 19.272473 17.055285 17.055285 0 0 0 18.590261 2.046634 153.497566 153.497566 0 0 1 125.697451 5.116585 145.481582 145.481582 0 0 1 78.96597 92.610198l-61.228474 78.113206-28.993984-10.062618a559.413351 559.413351 0 0 0-327.461474-12.620911l-85.276426 22.342424-51.165855-79.648182a259.922545 259.922545 0 0 1 126.20911-117.169809zM223.595129 409.326843a54.065254 54.065254 0 0 1 45.196505-53.21249v25.924033l-25.924033 14.155887a8.527643 8.527643 0 1 0 8.186537 15.008651l17.055285-9.721513v61.228474A54.065254 54.065254 0 0 1 223.595129 409.326843z m79.307076 63.616213V282.776627l83.912002-22.171871a525.473334 525.473334 0 0 1 306.995132 11.768147l26.606245 9.209854v191.530852a209.097795 209.097795 0 0 1-418.195591 0z" fill="#4C4497" p-id="2420"></path><path d="M597.276426 839.461133l-11.427041 2.558293a8.527643 8.527643 0 0 0 1.705528 17.055285h1.705529l11.938699-2.728846a8.527643 8.527643 0 1 0-3.922715-17.055285z" fill="#4C4497" p-id="2421"></path></svg>